<svg xmlns="http://www.w3.org/2000/svg" viewBox="0 0 98 96" role="img" aria-labelledby="title desc">
  <title id="title">GitHub Mark Dark</title>
  <desc id="desc">Official GitHub logo mark in dark color for light backgrounds.</desc>
  <path fill="#24292F" d="M48.854 0C21.839 0 0 21.838 0 48.775c0 21.552 13.937 39.837 33.274 46.287 2.432.451 3.326-1.048 3.326-2.328 0-1.152-.043-4.208-.067-8.258-13.536 2.937-16.395-6.522-16.395-6.522-2.211-5.596-5.399-7.084-5.399-7.084-4.412-3.014.335-2.953.335-2.953 4.878.342 7.447 4.989 7.447 4.989 4.338 7.414 11.379 5.273 14.151 4.032.439-3.136 1.697-5.276 3.086-6.49-10.805-1.226-22.168-5.388-22.168-23.983 0-5.299 1.896-9.63 5.004-13.029-.5-1.227-2.17-6.162.477-12.845 0 0 4.08-1.303 13.365 4.978 3.876-1.076 8.031-1.613 12.162-1.631 4.13.018 8.286.555 12.168 1.631 9.278-6.281 13.351-4.978 13.351-4.978 2.654 6.683.984 11.618.484 12.845 3.114 3.399 4.997 7.73 4.997 13.029 0 18.642-11.381 22.744-22.222 23.945 1.744 1.503 3.299 4.463 3.299 8.995 0 6.492-.061 11.732-.061 13.327 0 1.292.876 2.8 3.344 2.324C84.077 88.607 98 70.325 98 48.775 98 21.838 76.161 0 48.854 0Z"/>
</svg>
